<?xml version="1.0" encoding="utf-8"?>
<!-- Generator: Adobe Illustrator 24.2.3, SVG Export Plug-In . SVG Version: 6.00 Build 0)  -->
<svg version="1.1" id="Layer_1" xmlns="http://www.w3.org/2000/svg" xmlns:xlink="http://www.w3.org/1999/xlink" x="0px" y="0px"
	 viewBox="0 0 64 64" style="enable-background:new 0 0 64 64;" xml:space="preserve">
<style type="text/css">
	.st0{fill:#BE1E2D;}
	.st1{fill:#F7941E;}
	.st2{fill:#FFD2B4;}
	.st3{opacity:0.2;fill:#FFFFFF;enable-background:new    ;}
	.st4{opacity:0.1;fill:#262234;enable-background:new    ;}
	.st5{fill:#262234;}
	.st6{fill:#611C24;}
	.st7{fill:#FFFFFF;}
</style>
<ellipse class="st0" cx="31.2" cy="33" rx="31.2" ry="33"/>
<path class="st1" d="M61.3,56.9c-16.8,10.4-40.7,10.4-57.5,0L5,53.4c2-5.2,8.1-8.7,15.1-8.7h24.8c7,0,13.1,3.5,15.1,8.7L61.3,56.9z"
	/>
<path class="st2" d="M32,13.1c11.5,0,10.5,10.8,10.5,10.8c1.7-0.2,3,0.5,3,2.9s-1,2.9-2.3,3c-0.1,0-0.3,0.1-0.3,0.3
	c-0.4,3.7-3,6.4-5.6,8.2c-3.2,2.2-7.4,2.2-10.6,0c-2.6-1.8-5.2-4.5-5.6-8.2c0-0.1-0.1-0.3-0.3-0.3c-1.3-0.1-2.4-0.6-2.4-3
	s1.3-3,2.9-2.9C21.5,23.8,20.6,13.1,32,13.1z"/>
<path class="st2" d="M36,39v5.8c0,0.8-0.4,1.5-1.1,1.8l0,0c-1.8,0.9-4,0.9-5.8,0l0,0c-0.7-0.3-1.1-1-1.1-1.8V39H36z"/>
<path class="st3" d="M36,44v0.8c0,0.8-0.4,1.5-1.1,1.8c-1.8,0.9-4,0.9-5.8,0c-0.7-0.3-1.1-1-1.1-1.8V44h-2v0.8
	c0,1.5,0.9,2.9,2.2,3.6c2.4,1.2,5.2,1.2,7.6,0c1.4-0.7,2.2-2.1,2.2-3.6V44H36z"/>
<path class="st4" d="M36,41.1v1.5c-2.5,1.2-5.5,1.2-8,0v-1.5C30.5,42.3,33.5,42.3,36,41.1z"/>
<circle class="st5" cx="28" cy="28.1" r="1.7"/>
<circle class="st5" cx="36" cy="28.1" r="1.7"/>
<path class="st6" d="M35.9,32.5c0.6,0,1,0.4,1,1c0,0.1,0,0.2,0,0.3c-0.7,2.7-3.4,4.3-6.1,3.6c-1.8-0.5-3.1-1.8-3.6-3.6
	c-0.1-0.5,0.2-1.1,0.7-1.2c0.1,0,0.2,0,0.3,0H35.9z"/>
<path class="st0" d="M34.4,36.9c-1.5,0.8-3.3,0.8-4.8,0c0.2-1.2,1.2-1.6,2.4-1.6S34.2,35.7,34.4,36.9z"/>
<path class="st7" d="M34.9,32.5v1c0,0.2-0.2,0.4-0.4,0.4h-5c-0.2,0-0.4-0.2-0.4-0.4v-1H34.9z"/>
<path class="st5" d="M39.4,18.4L39.4,18.4c1.8,3.3,1.4,7,1.5,7.6s2,0.7,2.2,0c0.2-0.7,0.3-1.4,0.3-2.1c0-6-2.5-12.7-11.3-12.7
	s-11.3,6.6-11.3,12.7c0,0.7,0.1,1.4,0.3,2.1c0.2,0.7,2.1,0.7,2.2,0s-0.4-4.3,1.5-7.6l0,0C29.5,20,34.6,20.1,39.4,18.4z"/>
</svg>
