<?xml version="1.0" encoding="utf-8"?>
<!-- Generator: Adobe Illustrator 24.2.3, SVG Export Plug-In . SVG Version: 6.00 Build 0)  -->
<svg version="1.1" id="Layer_1" xmlns="http://www.w3.org/2000/svg" xmlns:xlink="http://www.w3.org/1999/xlink" x="0px" y="0px"
	 viewBox="0 0 64 64" style="enable-background:new 0 0 64 64;" xml:space="preserve">
<style type="text/css">
	.st0{fill:#E0E0E0;}
	.st1{fill:#1C007F;}
	.st2{fill:#FFD2B4;}
	.st3{opacity:0.2;fill:#FFFFFF;enable-background:new    ;}
	.st4{opacity:0.1;fill:#262234;enable-background:new    ;}
	.st5{fill:#262234;}
	.st6{fill:#611C24;}
	.st7{fill:#BE1E2D;}
</style>
<ellipse class="st0" cx="31.2" cy="32" rx="31.2" ry="32"/>
<path class="st1" d="M65.2,55.7c-18.7,9.9-45.1,9.9-63.8,0l1.4-3.4c2.2-4.9,9-8.3,16.7-8.3H47c7.7,0,14.5,3.3,16.7,8.3L65.2,55.7z"
	/>
<path class="st2" d="M32,7c17.3,0,15.8,13.5,15.8,13.5c2.5-0.2,4.5,0.6,4.5,3.6s-1.5,3.6-3.5,3.8c-0.2,0-0.4,0.2-0.4,0.3
	c-0.6,4.6-4.5,8-8.4,10.3c-4.8,2.8-11.2,2.8-15.9,0c-3.9-2.3-7.8-5.7-8.4-10.3c0-0.2-0.2-0.3-0.4-0.3c-2-0.2-3.5-0.8-3.5-3.8
	s1.9-3.8,4.4-3.6C16.2,20.5,14.8,7,32,7z"/>
<path class="st2" d="M38,39v5.8c0,0.8-0.5,1.5-1.4,1.8l0,0c-2.3,0.9-5,0.9-7.2,0l0,0c-0.9-0.3-1.4-1-1.4-1.8V39H38z"/>
<path class="st3" d="M37.5,44v0.8c0,0.8-0.5,1.5-1.3,1.8c-2.1,0.9-4.6,0.9-6.7,0c-0.8-0.3-1.3-1-1.3-1.8V44H26v0.8
	c0,1.5,1,2.9,2.6,3.6c2.7,1.2,6,1.2,8.7,0c1.6-0.7,2.6-2.1,2.6-3.6V44H37.5z"/>
<path class="st4" d="M36,41.1v1.5c-2.5,1.2-5.5,1.2-8,0v-1.5C30.5,42.3,33.5,42.3,36,41.1z"/>
<ellipse class="st5" cx="26" cy="26.4" rx="2.5" ry="2.2"/>
<ellipse class="st5" cx="38" cy="26.4" rx="2.6" ry="2.4"/>
<path class="st6" d="M36.9,32.2c0.7,0,1.3,0.4,1.3,1c0,0.1,0,0.2,0,0.3c-0.9,2.8-4.3,4.5-7.7,3.8c-2.2-0.5-3.9-1.9-4.5-3.8
	c-0.2-0.6,0.2-1.1,0.9-1.3c0.1,0,0.2,0,0.4,0H36.9z"/>
<path class="st7" d="M34.4,37.1c-1.6,0.7-3.4,0.6-4.8-0.3c0.3-1.2,1.3-1.5,2.5-1.4C33.3,35.4,34.3,35.8,34.4,37.1z"/>
<path class="st5" d="M42.8,16.2L42.8,16.2c2.7,5.2,2,11.1,2.2,12c0.1,0.9,2.9,1.1,3.2,0c0.2-1.1,0.4-2.2,0.4-3.4
	C48.6,15.4,45,4.8,32,4.8s-16.6,10.5-16.6,20c0,1.1,0.2,2.3,0.5,3.4c0.3,1.1,3,1.1,3.2,0c0.2-1.1-0.5-6.8,2.2-12l0,0
	C28.3,18.8,35.9,18.9,42.8,16.2z"/>
</svg>
