<?xml version="1.0" standalone="no"?>
<!DOCTYPE svg PUBLIC "-//W3C//DTD SVG 20010904//EN"
 "http://www.w3.org/TR/2001/REC-SVG-20010904/DTD/svg10.dtd">
<svg version="1.0" xmlns="http://www.w3.org/2000/svg"
 width="480.000000pt" height="519.000000pt" viewBox="0 0 480.000000 519.000000"
 preserveAspectRatio="xMidYMid meet">

<g transform="translate(0.000000,519.000000) scale(0.100000,-0.100000)"
fill="#000000" stroke="none">
<path d="M2520 5110 c-108 -14 -192 -30 -245 -47 -131 -41 -135 -44 -266 -165
-140 -129 -168 -172 -219 -333 -12 -38 -26 -81 -32 -95 -17 -41 -22 -268 -7
-320 7 -25 12 -67 11 -95 -2 -70 12 -140 55 -274 36 -114 65 -173 97 -200 9
-7 16 -24 16 -36 0 -40 66 -182 114 -247 33 -44 46 -71 46 -95 0 -23 -5 -33
-15 -33 -35 0 -97 -45 -210 -154 -86 -83 -133 -120 -165 -132 -62 -23 -154
-68 -222 -108 -31 -19 -105 -59 -164 -91 -127 -67 -203 -118 -259 -172 -84
-82 -142 -253 -170 -508 -4 -33 -18 -105 -32 -160 -14 -55 -33 -147 -43 -205
-43 -243 -52 -291 -80 -406 -39 -163 -60 -287 -60 -354 0 -54 -22 -198 -35
-232 -5 -11 -18 -18 -36 -18 -23 0 -33 -8 -56 -47 -24 -41 -28 -59 -28 -125 0
-43 -4 -77 -8 -75 -17 5 -46 -61 -57 -127 -6 -38 -16 -78 -21 -89 -7 -12 -9
-47 -4 -93 l7 -74 1463 0 1463 0 12 36 c12 35 68 133 82 144 12 9 28 60 28 89
0 16 7 34 15 41 10 8 15 26 13 47 -2 25 3 39 17 49 16 12 17 16 6 23 -25 16 9
24 95 22 84 -1 145 -16 219 -54 32 -16 37 -17 26 -3 -7 9 -9 16 -3 16 15 0 33
-26 24 -35 -11 -12 239 2 251 14 17 17 -3 31 -73 47 -35 8 -69 19 -75 24 -8 6
-10 29 -7 60 3 34 1 50 -7 50 -16 0 -33 -50 -28 -83 2 -15 2 -27 1 -27 -23 0
-104 24 -104 31 0 5 5 9 11 9 6 0 8 9 4 20 -4 11 -2 20 4 20 6 0 11 18 11 40
0 35 -3 40 -22 40 -13 0 -30 -5 -38 -10 -12 -8 -11 -10 8 -10 12 0 22 -5 22
-11 0 -5 -4 -8 -9 -5 -5 4 -11 1 -13 -6 -7 -21 -41 0 -35 22 6 23 -19 54 -36
43 -7 -4 -4 -9 9 -14 18 -7 18 -8 -1 -8 -11 0 -33 11 -50 25 l-30 25 65 -6
c36 -3 97 -10 135 -16 39 -5 102 -14 140 -20 39 -5 83 -14 99 -19 16 -5 32 -8
34 -5 8 7 -44 24 -99 31 -39 5 -53 12 -57 26 -3 14 -7 16 -13 7 -5 -8 -10 -1
-16 21 -10 37 -33 53 -33 23 0 -10 -7 -27 -16 -38 -15 -20 -15 -20 -34 5 -16
20 -20 22 -20 8 0 -12 -8 -18 -21 -18 -19 0 -21 4 -16 40 l5 40 -20 -25 c-10
-14 -16 -29 -13 -35 3 -5 -3 -10 -13 -10 -13 0 -21 9 -24 25 -5 22 -2 25 24
25 22 0 29 4 25 14 -3 8 3 31 14 51 20 38 18 58 -3 37 -7 -7 -20 -12 -30 -12
-13 0 -18 -8 -18 -30 0 -16 5 -30 10 -30 6 0 10 -4 10 -10 0 -19 -20 -10 -33
16 l-14 27 -1 -29 c-1 -38 -19 -84 -32 -84 -8 0 -9 19 -5 58 10 94 15 109 43
135 42 40 48 49 61 102 7 27 17 53 23 56 7 4 7 13 -1 27 -7 14 -8 23 -1 27 13
8 13 35 0 35 -5 0 -10 -6 -10 -13 0 -14 -35 -47 -49 -47 -5 0 -14 6 -20 14 -9
10 -8 15 4 20 20 7 19 32 -2 40 -14 6 -14 8 3 22 18 14 18 15 -6 8 -29 -8 -38
-19 -46 -56 -4 -15 -11 -25 -16 -22 -5 3 -7 12 -4 20 3 8 2 14 -2 14 -8 -1
-57 -76 -68 -103 -3 -9 -11 -17 -18 -17 -6 -1 -23 -19 -39 -41 -16 -23 -32
-37 -39 -33 -8 5 -6 11 5 19 10 7 17 17 17 22 0 5 15 27 33 49 18 21 39 54 46
72 8 17 17 32 22 32 5 0 16 18 25 40 9 22 20 40 24 40 4 0 11 11 14 24 3 13
19 38 35 55 16 17 32 45 36 61 4 17 10 30 14 30 9 0 106 192 117 230 l6 25
-20 -23 -21 -24 -13 21 c-15 24 -33 28 -24 6 3 -8 -1 -29 -8 -47 -14 -31 -14
-32 -18 -8 -2 14 -1 39 3 55 4 17 10 48 14 69 l6 39 -75 -76 c-41 -43 -80 -77
-86 -77 -5 0 -10 -7 -10 -15 0 -8 -4 -15 -8 -15 -4 0 -8 9 -8 20 0 11 4 20 9
20 5 0 7 7 4 15 -4 8 -2 17 3 20 5 3 35 41 67 83 31 42 63 84 70 92 40 47 161
199 176 220 70 102 90 139 95 175 l5 40 -20 -25 c-11 -14 -30 -44 -42 -68 -12
-24 -50 -72 -84 -107 -34 -35 -87 -91 -117 -124 -30 -34 -64 -66 -75 -72 -15
-9 -13 -4 7 17 14 16 45 49 68 74 51 55 104 130 97 136 -12 12 -196 -164 -280
-267 l-28 -34 26 40 c14 22 30 51 35 64 6 13 19 35 30 49 11 13 20 31 20 38 0
7 31 78 69 157 73 151 96 216 82 230 -14 14 -35 -3 -71 -59 -19 -30 -52 -67
-75 -82 -22 -15 -45 -34 -52 -42 -15 -18 -17 -6 -3 21 6 10 17 19 26 19 8 0
20 11 26 25 6 14 14 25 18 25 4 0 19 22 33 49 30 55 36 97 12 87 -20 -7 -20
33 0 60 22 29 14 136 -10 134 -6 0 -9 -25 -6 -60 2 -50 0 -60 -13 -60 -9 0
-16 -7 -16 -17 0 -9 -3 -13 -7 -10 -3 4 -14 -16 -24 -44 -10 -28 -34 -83 -53
-122 -19 -40 -38 -92 -41 -117 -4 -25 -11 -49 -15 -55 -4 -5 -15 -41 -23 -80
-9 -38 -25 -97 -37 -129 -11 -33 -20 -77 -20 -98 0 -28 -10 -53 -35 -89 -23
-34 -35 -45 -35 -32 0 10 4 23 9 28 5 6 12 26 15 45 10 66 49 228 68 285 5 17
16 55 24 85 24 91 65 223 79 255 26 57 37 125 33 190 -4 71 -11 81 -119 167
-44 36 -13 24 74 -27 37 -22 80 -47 95 -55 49 -28 177 -112 202 -134 l25 -21
-20 23 c-22 26 -146 111 -246 167 -35 20 -80 46 -99 57 -19 11 -60 34 -90 51
-30 16 -73 40 -95 53 -22 12 -62 35 -89 49 -26 15 -51 35 -53 46 -3 10 -10 19
-15 19 -5 0 -6 -5 -2 -11 4 -7 0 -9 -13 -5 -17 5 -19 2 -16 -31 2 -34 1 -33
-11 12 -12 48 -13 49 -21 22 -6 -21 -10 -25 -16 -15 -6 9 -9 7 -9 -9 0 -12 -7
-29 -16 -38 -10 -9 -19 -33 -20 -53 -6 -56 -12 -78 -39 -135 -35 -73 -53 -96
-64 -78 -5 8 -7 30 -5 50 4 33 4 34 -8 13 -8 -17 -9 -31 -1 -51 11 -31 -1 -75
-19 -68 -7 2 -12 17 -11 33 2 25 1 27 -9 10 -7 -13 -7 -24 2 -41 25 -46 -11
-125 -56 -125 -30 0 -41 39 -27 92 6 21 6 38 2 38 -5 0 -12 -15 -17 -32 l-8
-33 -6 27 c-3 16 3 45 13 69 11 23 19 56 19 75 0 33 12 45 25 24 14 -23 23 -7
21 38 -1 29 5 57 15 72 61 94 104 237 95 314 -9 76 -41 111 -118 130 -23 5
-28 3 -28 -12 0 -36 20 -77 42 -87 37 -16 70 -75 63 -111 -11 -59 -49 -124
-108 -186 -35 -37 -31 -94 4 -62 31 28 22 3 -20 -56 -22 -30 -56 -88 -76 -128
-33 -64 -37 -82 -36 -138 1 -47 8 -78 25 -112 20 -38 24 -64 26 -132 0 -47 5
-125 10 -175 15 -140 23 -127 -72 -123 l-83 3 -3 -45 c-1 -25 -9 -97 -18 -160
-8 -63 -20 -189 -25 -280 -5 -91 -15 -208 -22 -260 -7 -52 -11 -102 -9 -111 3
-16 74 -29 153 -29 l29 0 0 78 c0 70 15 250 39 457 5 44 12 118 16 165 4 47
10 101 15 120 15 59 3 -370 -14 -530 -28 -250 -48 -385 -57 -395 -6 -5 -9 -3
-9 8 0 26 -39 44 -111 50 l-67 6 -7 -142 c-9 -189 -4 -313 13 -310 6 2 12 -1
12 -6 0 -6 -19 -11 -42 -13 -42 -3 -43 -4 -46 -43 -2 -22 -7 -42 -11 -45 -12
-8 -24 -63 -12 -55 7 3 8 0 5 -9 -6 -17 -1 -19 55 -18 55 1 91 -23 91 -60 0
-15 -9 -18 -45 -18 -24 0 -76 -5 -113 -12 -64 -11 -73 -10 -124 11 l-56 22
-49 -30 c-56 -35 -68 -38 -60 -16 9 22 -13 29 -28 9 -20 -28 -221 -27 -280 1
-22 10 -53 20 -68 22 l-28 3 25 -27 c14 -15 23 -29 21 -31 -7 -8 -95 29 -95
39 0 5 -6 9 -13 9 -8 0 -22 9 -32 20 -21 24 -35 26 -35 5 0 -8 -14 -17 -37
-21 -21 -4 -45 -10 -54 -15 -9 -4 -34 -2 -59 5 l-44 13 34 16 c18 10 42 17 53
17 17 0 19 5 14 32 -3 18 -13 51 -23 73 -24 55 -29 266 -9 400 8 55 21 176 30
268 9 93 18 174 21 181 3 7 16 75 29 152 60 343 120 646 135 674 4 8 11 35 14
60 4 25 16 72 26 105 10 33 26 92 35 130 9 39 19 79 21 90 3 11 11 52 18 90 8
39 17 78 21 88 8 18 25 23 25 7 0 -18 29 -10 41 11 6 12 13 49 16 83 2 33 7
68 10 76 3 8 7 21 9 29 1 8 7 17 12 20 5 3 14 33 20 67 6 34 20 76 31 95 24
38 26 36 10 -9 -8 -22 -7 -46 1 -86 9 -44 20 -64 61 -105 28 -29 78 -66 112
-83 57 -29 70 -32 162 -32 95 -1 210 18 221 36 3 4 13 8 23 8 20 0 116 48 175
88 49 34 94 75 123 115 29 39 31 105 4 138 l-18 22 -5 -47 c-10 -85 -119 -187
-237 -222 -31 -9 -69 -20 -85 -25 -16 -5 -44 -9 -62 -9 -31 0 -34 3 -49 53
-11 35 -14 69 -9 104 5 45 10 54 34 65 31 13 30 28 0 28 -22 0 -40 28 -40 60
0 11 -7 31 -15 43 -9 15 -11 27 -5 37 9 13 11 13 19 1 7 -11 10 -7 13 15 2 18
9 29 18 29 10 0 14 8 12 25 -2 14 -4 50 -5 80 -1 43 -6 60 -24 76 -23 23 -21
37 4 27 8 -3 19 0 24 8 6 10 1 16 -19 20 l-27 6 28 11 c35 15 34 24 -4 56 -31
26 -31 28 -35 134 -3 108 10 349 21 395 5 20 15 27 45 32 30 5 37 10 33 22 -4
11 -3 14 6 9 6 -4 19 -2 28 6 9 7 14 8 10 2 -3 -6 5 -16 18 -22 24 -11 34 -32
16 -32 -5 0 -22 -20 -38 -46 -29 -44 -30 -46 -15 -89 11 -36 20 -46 49 -56 19
-6 37 -17 39 -24 3 -7 15 -15 26 -18 16 -5 19 -2 15 14 -4 16 0 19 29 19 32 0
33 2 28 29 -6 31 -3 32 91 50 l40 7 -51 17 c-29 10 -60 27 -69 37 -17 19 -17
20 1 20 18 1 18 1 1 11 -9 5 -28 21 -41 34 l-24 24 31 10 c16 6 47 11 68 11
40 0 58 13 37 27 -18 11 -288 12 -288 1 0 -5 -5 -6 -11 -2 -8 4 -7 9 2 15 11
7 11 11 1 17 -15 10 -9 98 7 94 7 -1 14 5 17 13 4 9 19 15 35 15 21 0 29 5 29
18 0 14 -2 15 -10 2 -8 -12 -10 -9 -10 12 0 17 7 31 19 37 16 9 21 6 31 -19
10 -23 16 -28 25 -20 9 8 15 8 20 0 8 -13 55 -13 55 0 0 6 7 10 16 10 10 0 14
5 10 16 -3 8 -2 12 3 9 5 -3 12 -1 15 4 3 5 -3 11 -14 14 -24 6 -26 32 -5 53
8 9 15 11 15 5 0 -6 11 -11 25 -11 14 0 25 -3 26 -7 0 -5 2 -21 4 -38 3 -22 2
-26 -5 -15 -9 13 -11 13 -20 0 -5 -8 -10 -21 -10 -27 0 -7 -6 -13 -12 -13 -7
0 -5 -5 5 -11 9 -6 15 -14 12 -18 -2 -5 17 -14 43 -21 85 -23 137 -97 148
-210 3 -24 8 -47 13 -50 5 -3 11 -16 15 -30 7 -24 7 -24 -9 -5 -14 18 -15 11
-9 -85 4 -58 10 -106 14 -108 4 -1 4 -22 -1 -45 -8 -47 -2 -68 15 -45 6 8 19
17 29 21 18 7 22 49 8 97 l-7 25 -15 -25 c-13 -24 -14 -23 -20 35 -4 44 -2 63
8 71 13 11 12 101 -2 124 -3 5 -2 10 4 10 6 0 13 -12 16 -27 11 -54 22 -78 33
-76 15 4 15 -2 0 -28 -11 -17 -10 -22 5 -30 12 -7 17 -22 17 -51 0 -31 3 -39
11 -31 16 16 24 136 11 159 -11 18 -11 18 -12 1 0 -10 -4 -15 -10 -12 -5 3
-10 19 -10 35 0 30 28 49 42 28 5 -9 8 -4 8 14 0 14 5 28 12 30 7 3 12 21 11
44 -1 21 4 42 10 46 7 5 2 8 -12 8 -16 0 -22 -4 -17 -15 3 -8 2 -15 -3 -15 -4
0 -7 -12 -5 -27 2 -16 1 -20 -2 -10 -3 9 -10 17 -15 17 -10 0 -8 -28 5 -48 9
-15 8 -17 -20 -26 -11 -3 -28 0 -40 9 -18 15 -18 15 9 9 17 -4 27 -2 27 5 0 6
-7 11 -15 11 -8 0 -15 4 -15 9 0 5 10 7 23 4 20 -5 21 -4 4 8 -20 16 -18 56 4
70 9 5 10 9 2 9 -10 0 -12 27 -4 83 2 12 31 8 31 -5 0 -10 3 -9 9 1 5 7 14 10
20 7 6 -4 9 -12 6 -17 -4 -5 1 -9 10 -9 11 0 15 5 11 16 -3 8 -2 12 4 9 6 -3
10 1 10 10 0 11 -8 15 -27 13 -16 -2 -32 -7 -36 -13 -5 -6 -7 -3 -4 7 6 17
-15 42 -26 31 -4 -3 -7 1 -7 10 0 9 -4 17 -10 17 -5 0 -7 -6 -4 -14 3 -8 1
-17 -5 -20 -6 -4 -8 -14 -4 -24 3 -9 -4 -2 -16 16 -12 18 -22 40 -22 50 -1 9
-5 1 -9 -18 -5 -23 -8 -27 -9 -12 -1 25 -21 31 -21 6 0 -8 -4 -13 -10 -9 -5 3
-7 12 -4 19 3 8 1 17 -5 21 -7 3 -11 -3 -11 -16 0 -21 -1 -21 -24 4 -23 24
-25 25 -31 8 -3 -10 -3 -27 1 -37 4 -13 3 -15 -3 -6 -5 7 -17 10 -26 6 -10 -3
-17 -1 -17 5 0 6 5 10 12 9 6 -2 13 6 15 17 3 15 2 17 -5 6 -8 -11 -10 -11
-15 0 -4 11 -6 11 -6 1 -1 -10 -5 -10 -17 2 -8 9 -13 24 -11 34 4 16 5 16 6 0
0 -10 8 -18 17 -18 9 0 14 6 11 13 -3 9 5 14 26 15 17 2 37 8 45 15 13 10 14
8 8 -18 l-7 -30 22 22 c21 20 23 21 35 5 10 -14 11 -13 7 11 -6 30 -5 31 31
17 18 -6 26 -6 26 1 0 6 5 7 12 3 7 -4 8 -3 4 4 -4 7 -14 12 -22 12 -9 0 -22
7 -30 15 -8 8 -21 12 -29 9 -8 -4 -15 -1 -15 6 0 8 10 9 30 5 17 -4 30 -3 29
2 -3 20 2 25 16 13 16 -14 20 -3 6 19 -5 8 -16 11 -25 8 -26 -10 -18 1 12 17
15 9 20 15 12 16 -13 0 -13 1 0 11 12 9 11 10 -7 6 -27 -6 -27 -6 -11 30 14
32 26 43 48 43 13 0 13 -1 0 -10 -13 -9 -13 -10 0 -10 33 0 39 13 24 55 -7 22
-18 41 -23 43 -5 2 -8 9 -5 16 3 7 -2 19 -11 26 -24 20 -19 -10 10 -63 l25
-45 -25 -4 c-17 -4 -25 -1 -25 9 0 8 5 11 10 8 6 -3 10 4 10 17 0 18 -2 20
-10 8 -5 -8 -10 -13 -11 -10 0 3 -3 17 -5 33 -2 15 -6 39 -8 55 -2 15 -5 30
-5 33 -1 4 -14 9 -31 11 l-30 5 0 -61 c0 -40 -3 -56 -9 -47 -5 8 -7 21 -3 29
3 10 1 13 -6 8 -6 -4 -12 3 -14 16 -3 21 -4 21 -20 4 -10 -10 -18 -13 -18 -7
0 5 8 17 17 26 13 14 14 21 4 36 -9 15 -9 30 -1 59 9 33 8 44 -6 65 -15 23
-90 75 -108 75 -14 0 6 -21 27 -29 14 -5 20 -17 21 -39 1 -18 -2 -32 -6 -32
-5 0 -8 11 -8 25 0 19 -5 25 -21 25 -11 0 -18 4 -14 9 3 5 1 12 -4 16 -5 3
-14 -2 -19 -11 -7 -12 -15 -15 -28 -9 -11 4 -26 7 -36 6 -9 -1 -19 3 -23 10
-5 8 -1 9 14 4 24 -7 29 12 9 34 -11 11 -10 13 5 8 9 -4 17 -2 17 3 0 6 -9 10
-19 10 -11 0 -21 5 -23 11 -5 15 -160 20 -248 9z m42 -49 c17 -6 37 -11 45
-11 8 0 23 -9 35 -20 12 -10 24 -17 28 -15 4 3 14 -3 21 -12 12 -14 12 -16 0
-9 -8 5 -17 3 -22 -5 -7 -11 -9 -11 -9 -1 0 7 -4 11 -8 8 -5 -3 -15 6 -22 19
-11 20 -16 22 -28 13 -11 -10 -16 -9 -23 5 -6 9 -15 17 -22 17 -23 1 -49 28
-41 42 7 10 9 9 12 -4 2 -9 17 -21 34 -27z m118 14 c0 -30 -33 -47 -43 -21 -4
10 0 12 16 8 l22 -5 -20 23 -20 23 23 -12 c12 -6 22 -13 22 -16z m70 -19 c0
-3 -4 -8 -10 -11 -5 -3 -10 -1 -10 4 0 6 5 11 10 11 6 0 10 -2 10 -4z m-160
-51 c32 -18 25 -18 -25 0 -22 8 -31 14 -20 14 11 0 31 -6 45 -14z m370 -15 c8
-16 8 -18 -4 -14 -17 6 -30 34 -16 34 5 0 14 -9 20 -20z m-145 -8 c-3 -3 -11
0 -18 7 -9 10 -8 11 6 5 10 -3 15 -9 12 -12z m65 -17 c-7 -9 -10 -19 -6 -22 4
-4 11 -1 16 7 7 11 10 8 10 -15 l0 -29 -21 20 c-18 19 -19 24 -8 42 7 12 15
19 18 17 2 -3 -2 -11 -9 -20z m-79 -32 c0 -5 2 -23 3 -40 3 -23 -1 -33 -10
-33 -7 0 -12 -6 -10 -12 1 -7 1 -10 -1 -5 -3 4 -10 7 -17 7 -6 0 -12 9 -12 20
0 11 6 20 13 20 7 0 13 11 13 25 0 22 19 38 21 18z m-203 -50 c-2 -9 -8 -18
-15 -20 -7 -3 -9 3 -6 16 6 25 26 28 21 4z m363 3 c5 3 9 -10 9 -28 l0 -33
-15 29 c-8 15 -15 33 -14 40 0 7 2 6 6 -2 2 -6 9 -10 14 -6z m-74 -18 c-3 -8
-6 -5 -6 6 -1 11 2 17 5 13 3 -3 4 -12 1 -19z m43 -19 c0 -31 -15 -41 -16 -11
-1 9 -5 25 -9 35 -5 13 -4 16 9 11 10 -4 16 -18 16 -35z m-455 -57 c2 -12 -1
-19 -7 -16 -5 3 -7 12 -4 20 3 7 1 16 -4 19 -6 4 -10 16 -9 28 0 21 1 21 11
-3 6 -14 12 -35 13 -48z m20 39 c-6 -5 -25 10 -25 20 0 5 6 4 14 -3 8 -7 12
-15 11 -17z m352 7 c-3 -8 -6 -5 -6 6 -1 11 2 17 5 13 3 -3 4 -12 1 -19z
m-229 -17 c-2 -25 -5 -28 -16 -18 -9 7 -10 13 -3 15 6 2 11 8 11 13 0 6 -4 8
-9 4 -5 -3 -12 -1 -16 5 -3 5 3 10 15 10 16 0 20 -6 18 -29z m73 -14 c-8 -8
-11 -3 -11 19 1 25 2 27 11 11 8 -14 8 -22 0 -30z m200 -16 c-4 -3 -11 -13
-14 -21 -3 -8 -5 2 -4 23 2 32 4 35 14 20 7 -9 9 -19 4 -22z m-352 -8 c6 -21
11 -44 11 -50 0 -7 4 -13 10 -13 5 0 6 -7 3 -17 -4 -10 -2 -14 4 -10 11 7 40
-20 31 -28 -8 -8 -68 16 -68 27 0 5 5 6 11 2 12 -7 3 52 -11 71 -12 16 -19 55
-10 55 5 0 14 -17 19 -37z m421 22 c0 -8 -4 -15 -10 -15 -5 0 -10 7 -10 15 0
8 5 15 10 15 6 0 10 -7 10 -15z m-134 -20 c1 -8 -2 -13 -7 -9 -5 3 -9 12 -9
21 0 19 13 9 16 -12z m259 16 c3 -5 2 -12 -3 -15 -5 -3 -9 1 -9 9 0 17 3 19
12 6z m-575 -21 c0 -5 -4 -10 -10 -10 -5 0 -10 5 -10 10 0 6 5 10 10 10 6 0
10 -4 10 -10z m500 -23 c0 -5 -4 -5 -10 -2 -5 3 -10 14 -10 23 0 15 2 15 10 2
5 -8 10 -19 10 -23z m56 -32 c0 -19 -4 -35 -8 -35 -4 0 -8 7 -8 15 0 8 -4 15
-10 15 -5 0 -2 9 7 20 10 11 18 20 18 20 1 0 1 -16 1 -35z m-555 -5 c5 0 9 -5
9 -12 0 -9 -3 -9 -12 0 -7 7 -19 12 -27 12 -14 0 -14 -2 -2 -9 8 -5 16 -16 17
-25 1 -9 9 -23 18 -32 20 -19 20 -25 1 -18 -16 7 -55 69 -55 89 0 18 34 25 38
8 2 -7 8 -13 13 -13z m399 -16 c0 -8 -5 -12 -10 -9 -6 4 -8 11 -5 16 9 14 15
11 15 -7z m197 1 c0 -8 -4 -15 -9 -15 -4 0 -8 7 -8 15 0 8 4 15 8 15 5 0 9 -7
9 -15z m-707 -61 c0 -2 -7 -4 -15 -4 -8 0 -15 4 -15 10 0 5 7 7 15 4 8 -4 15
-8 15 -10z m-30 -19 c7 -8 16 -12 21 -9 5 3 9 -2 9 -11 0 -9 4 -14 9 -11 5 3
11 -1 15 -9 5 -13 -5 -20 -26 -16 -18 3 -6 -20 15 -29 17 -7 18 -9 5 -9 -10
-1 -21 -1 -25 -2 -3 0 -12 17 -19 38 -7 20 -23 45 -36 55 -23 17 -23 18 -2 18
12 0 27 -7 34 -15z m97 -61 c-3 -3 -12 -4 -19 -1 -8 3 -5 6 6 6 11 1 17 -2 13
-5z m13 -25 c-12 -9 -11 -10 8 -6 12 3 22 0 22 -5 0 -6 6 -5 15 2 13 11 14 10
9 -4 -3 -9 -10 -16 -15 -16 -6 0 -4 -10 2 -22 9 -19 9 -21 -2 -10 -18 17 -40
15 -33 -3 4 -8 12 -15 19 -15 14 0 29 -29 20 -38 -3 -3 -5 -1 -5 5 0 6 -14 16
-31 23 -25 11 -35 11 -51 1 -11 -7 -23 -10 -26 -7 -3 3 0 6 6 6 7 0 12 5 12
10 0 6 -7 10 -16 10 -8 0 -12 5 -9 10 3 6 -1 13 -10 16 -24 9 1 24 40 24 21 0
26 3 16 9 -11 7 -10 10 5 14 33 8 40 7 24 -4z m527 -11 c-3 -8 -6 -5 -6 6 -1
11 2 17 5 13 3 -3 4 -12 1 -19z m-381 -13 c-11 -8 -27 -15 -35 -15 -10 0 -7 6
9 14 33 19 50 19 26 1z m44 -11 c0 -9 -24 -30 -43 -37 -15 -5 -16 -4 -7 12 12
23 50 42 50 25z m113 -25 c-6 -6 -9 -18 -6 -25 6 -17 -13 -19 -23 -2 -5 8 -10
6 -15 -8 -7 -18 -8 -18 -8 2 -1 20 23 40 42 36 4 -1 7 3 7 10 0 6 3 8 7 5 4
-4 2 -12 -4 -18z m241 6 c-4 -8 -8 -15 -10 -15 -2 0 -4 7 -4 15 0 8 4 15 10
15 5 0 7 -7 4 -15z m43 -1 c-3 -3 -12 -4 -19 -1 -8 3 -5 6 6 6 11 1 17 -2 13
-5z m-152 -24 c3 -5 1 -10 -4 -10 -6 0 -11 5 -11 10 0 6 2 10 4 10 3 0 8 -4
11 -10z m-418 -36 c-3 -3 -12 -4 -19 -1 -8 3 -5 6 6 6 11 1 17 -2 13 -5z m253
-14 c0 -5 -4 -10 -10 -10 -5 0 -10 5 -10 10 0 6 5 10 10 10 6 0 10 -4 10 -10z
m30 -10 c0 -5 -2 -10 -4 -10 -3 0 -8 5 -11 10 -3 6 -1 10 4 10 6 0 11 -4 11
-10z m-20 -20 c0 -5 -7 -10 -15 -10 -8 0 -15 5 -15 10 0 6 7 10 15 10 8 0 15
-4 15 -10z m320 -105 c-7 -9 -15 -13 -17 -11 -7 7 7 26 19 26 6 0 6 -6 -2 -15z
m-20 -88 c0 -16 -4 -26 -10 -22 -5 3 -10 23 -10 43 0 28 3 33 10 22 5 -8 10
-28 10 -43z m-1010 24 c0 -5 -7 -12 -16 -15 -14 -5 -15 -4 -4 9 14 17 20 19
20 6z m1050 -85 c0 -3 -4 -8 -10 -11 -5 -3 -10 -1 -10 4 0 6 5 11 10 11 6 0
10 -2 10 -4z m30 -67 c0 -6 -4 -7 -10 -4 -5 3 -10 11 -10 16 0 6 5 7 10 4 6
-3 10 -11 10 -16z m-300 -59 c0 -5 -7 -10 -15 -10 -8 0 -15 5 -15 10 0 6 7 10
15 10 8 0 15 -4 15 -10z m-835 -190 c7 -11 -19 -42 -28 -34 -7 7 4 44 14 44 4
0 11 -5 14 -10z m-78 -182 c-3 -7 -5 -2 -5 12 0 14 2 19 5 13 2 -7 2 -19 0
-25z m1341 -751 c21 -25 25 -119 9 -168 -9 -25 -19 -89 -23 -142 -4 -54 -10
-99 -13 -101 -3 -2 -6 82 -7 187 0 106 1 181 4 167 2 -13 11 -34 19 -45 15
-19 15 -19 9 10 -3 17 -10 47 -15 68 -9 38 -2 47 17 24z m60 -34 c-2 -9 -8
-18 -15 -20 -7 -3 -9 3 -6 16 6 25 26 28 21 4z m80 -38 c1 -1 9 -50 17 -110
10 -72 12 -112 6 -118 -13 -13 -15 -5 -35 118 -12 76 -20 104 -36 117 -30 25
-24 31 13 12 17 -9 33 -17 35 -19z m121 -86 c-5 -10 -7 -38 -3 -61 l5 -43 -21
45 c-13 27 -17 46 -11 48 18 6 12 33 -6 30 -10 -2 -19 4 -21 14 -3 15 0 15 32
0 29 -13 33 -19 25 -33z m-331 -196 l-2 -128 -5 115 c-6 108 -4 140 5 140 2 0
3 -57 2 -127z m-324 -138 c-29 -22 -37 -18 -17 9 11 15 22 21 27 15 6 -5 3
-14 -10 -24z m-5 -37 c-9 -16 -14 -19 -17 -9 -2 7 2 17 9 22 20 13 21 11 8
-13z m110 -758 c0 -10 -3 -8 -9 5 -12 27 -12 43 0 25 5 -8 9 -22 9 -30z m-62
-97 c-2 -21 -4 -6 -4 32 0 39 2 55 4 38 2 -18 2 -50 0 -70z m70 55 c-3 -8 -6
-5 -6 6 -1 11 2 17 5 13 3 -3 4 -12 1 -19z m187 -46 c-1 -7 -2 -18 -2 -26 -1
-7 -10 -16 -21 -19 -21 -5 -35 -67 -17 -72 6 -2 37 -6 69 -10 47 -5 58 -10 55
-23 -3 -14 -14 -17 -56 -15 -29 1 -60 7 -69 12 -12 6 -21 4 -31 -7 -12 -15
-13 -14 -8 8 2 14 10 59 17 101 12 75 13 76 38 69 14 -3 26 -12 25 -18z m33
-31 c-3 -23 0 -44 7 -51 8 -10 7 -11 -4 -8 -17 5 -24 39 -16 74 10 38 19 28
13 -15z m57 -20 c-4 -22 -10 -41 -15 -41 -8 0 -4 44 7 79 9 28 14 2 8 -38z
m-252 -17 c2 -78 -2 -115 -12 -109 -5 3 -10 43 -10 88 0 58 3 78 11 70 6 -6
11 -28 11 -49z m297 49 c0 -5 -4 -17 -9 -28 -8 -18 -9 -17 -9 8 -1 15 4 27 9
27 6 0 10 -3 9 -7z m-402 -75 c-3 -7 -5 -2 -5 12 0 14 2 19 5 13 2 -7 2 -19 0
-25z m2 -25 c0 -5 -4 -17 -9 -28 -8 -18 -9 -17 -9 8 -1 15 4 27 9 27 6 0 10
-3 9 -7z m78 -85 c-3 -8 -6 -5 -6 6 -1 11 2 17 5 13 3 -3 4 -12 1 -19z m213
-37 c0 -14 -2 -14 -10 -1 -8 11 -9 7 -4 -14 5 -19 3 -27 -4 -22 -6 3 -13 -2
-15 -11 -3 -10 -5 -1 -6 20 -1 46 -18 49 -24 5 -3 -30 -4 -29 -5 7 l-2 41 35
-4 c24 -3 35 -9 35 -21z m580 -231 c0 -6 -4 -9 -10 -5 -5 3 -14 -13 -20 -35
-11 -42 -95 -139 -108 -125 -4 4 3 15 16 25 13 11 20 24 16 34 -5 12 -2 15 10
10 10 -4 16 -1 16 10 0 8 9 20 20 26 15 8 20 21 20 49 0 21 3 40 6 44 8 8 34
-18 34 -33z m-1066 -116 c17 -7 21 -41 7 -63 -6 -9 -18 -11 -40 -6 -26 5 -31
11 -31 34 0 15 3 31 7 34 8 9 36 9 57 1z m-1 -124 c13 0 17 -8 16 -37 0 -31
-2 -34 -9 -18 l-9 20 -1 -20 c-2 -11 -2 -24 -1 -29 1 -5 -7 -6 -19 -3 -11 3
-20 1 -20 -3 0 -5 12 -11 28 -13 22 -3 20 -4 -10 -6 l-38 -1 0 61 c0 59 1 61
23 55 12 -3 30 -6 40 -6z m1252 -120 c3 -5 -1 -10 -10 -10 -9 0 -13 5 -10 10
3 6 8 10 10 10 2 0 7 -4 10 -10z m-270 -39 c3 -5 0 -13 -6 -16 -6 -4 -19 -21
-30 -39 -17 -27 -19 -28 -19 -9 0 12 7 28 15 37 8 8 15 19 15 25 0 13 17 14
25 2z m42 -27 c-3 -3 -12 -4 -19 -1 -8 3 -5 6 6 6 11 1 17 -2 13 -5z m53 2 c0
-2 -3 -11 -6 -20 -9 -23 -34 -20 -34 4 0 13 7 20 20 20 11 0 20 -2 20 -4z
m-20 -66 c3 -3 6 -14 6 -26 0 -17 -6 -20 -36 -19 -19 0 -33 5 -30 10 3 6 11 8
18 7 11 -3 12 6 7 40 l-7 43 18 -25 c10 -14 21 -27 24 -30z m46 -17 c-10 -10
-19 5 -10 18 6 11 8 11 12 0 2 -7 1 -15 -2 -18z m-1196 -68 c0 -8 -7 -15 -15
-15 -8 0 -15 7 -15 15 0 8 7 15 15 15 8 0 15 -7 15 -15z m-1970 -55 c0 -5 -2
-10 -4 -10 -3 0 -8 5 -11 10 -3 6 -1 10 4 10 6 0 11 -4 11 -10z m2150 -101
c17 -13 18 -17 5 -10 -33 17 -51 31 -40 31 6 0 21 -10 35 -21z"/>
<path d="M2427 4504 c-10 -10 4 -34 20 -34 12 0 13 3 4 13 -6 8 -8 17 -4 20 3
4 2 7 -4 7 -5 0 -12 -3 -16 -6z"/>
<path d="M3130 1484 c0 -8 5 -12 10 -9 6 3 10 10 10 16 0 5 -4 9 -10 9 -5 0
-10 -7 -10 -16z"/>
<path d="M3029 4912 c12 -22 41 -48 41 -36 -1 11 -36 54 -44 54 -4 0 -2 -8 3
-18z"/>
<path d="M3000 4888 c0 -1 7 -21 15 -43 l15 -40 -3 39 c-1 22 -8 41 -14 44 -7
2 -13 2 -13 0z"/>
<path d="M3146 4614 c-8 -20 -8 -24 2 -24 4 0 8 9 9 20 2 24 -3 26 -11 4z"/>
<path d="M3170 4506 c0 -10 28 -13 41 -5 10 6 7 9 -13 9 -16 0 -28 -2 -28 -4z"/>
<path d="M3130 4440 c0 -5 9 -10 20 -10 11 0 20 5 20 10 0 6 -9 10 -20 10 -11
0 -20 -4 -20 -10z"/>
<path d="M3230 4350 c0 -5 5 -10 10 -10 6 0 10 5 10 10 0 6 -4 10 -10 10 -5 0
-10 -4 -10 -10z"/>
<path d="M2717 3789 c4 -24 1 -29 -21 -35 -15 -3 -26 -13 -26 -23 0 -9 -4 -21
-9 -26 -22 -24 -15 -54 19 -87 20 -18 49 -50 65 -72 l29 -38 -29 -24 c-17 -13
-40 -24 -52 -24 -13 0 -23 -4 -23 -9 0 -5 10 -11 23 -13 15 -2 21 -9 19 -21
-5 -27 17 -50 34 -36 10 8 18 8 27 1 25 -21 53 26 67 113 11 69 -17 200 -48
225 -15 13 -22 29 -22 53 0 31 -3 35 -29 39 -28 4 -29 3 -24 -23z"/>
<path d="M2530 3650 c-8 -5 -11 -12 -8 -16 11 -10 60 5 53 16 -8 12 -26 12
-45 0z"/>
<path d="M3069 3060 c-6 -45 -4 -58 7 -48 3 3 4 26 2 49 l-3 44 -6 -45z"/>
<path d="M3047 2948 c-19 -60 -22 -108 -8 -108 10 0 35 132 29 151 -2 6 -11
-13 -21 -43z"/>
<path d="M3133 2935 c0 -22 2 -30 4 -17 2 12 2 30 0 40 -3 9 -5 -1 -4 -23z"/>
<path d="M2985 2809 c-4 -6 -5 -12 -2 -15 2 -3 7 2 10 11 7 17 1 20 -8 4z"/>
<path d="M2993 2783 c-15 -5 -18 -33 -4 -33 8 0 25 30 19 35 -2 1 -9 0 -15 -2z"/>
<path d="M3090 2780 c0 -5 5 -10 10 -10 6 0 10 5 10 10 0 6 -4 10 -10 10 -5 0
-10 -4 -10 -10z"/>
<path d="M3069 2704 c-5 -15 -8 -29 -5 -31 2 -2 8 10 14 26 13 38 5 41 -9 5z"/>
<path d="M3852 2473 c-1 -27 -4 -60 -8 -75 -4 -21 -2 -28 10 -28 13 0 16 13
16 75 0 82 -14 104 -18 28z"/>
<path d="M3988 2390 c7 -47 -28 -116 -93 -185 -23 -25 -52 -74 -77 -130 -25
-58 -23 -67 7 -53 14 6 25 19 25 30 0 10 6 18 13 18 15 0 110 138 132 193 20
50 25 94 13 129 -13 37 -26 36 -20 -2z"/>
<path d="M4060 2273 c0 -10 5 -25 10 -33 8 -12 10 -9 10 12 0 15 -4 30 -10 33
-5 3 -10 -2 -10 -12z"/>
<path d="M3955 2068 l-28 -43 26 23 c20 19 43 62 32 62 -1 0 -15 -19 -30 -42z"/>
<path d="M3905 2079 c-4 -6 -5 -12 -2 -15 2 -3 7 2 10 11 7 17 1 20 -8 4z"/>
<path d="M1786 1928 c-4 -24 -11 -92 -16 -153 -6 -60 -15 -144 -20 -185 -12
-102 -18 -214 -30 -565 -6 -165 -13 -333 -16 -372 l-6 -73 50 0 c27 0 83 3
124 6 l75 7 7 106 c22 323 25 387 26 500 0 68 9 248 20 400 11 152 21 294 23
316 2 37 0 40 -25 43 -28 3 -28 3 -29 -55 -1 -32 -4 -83 -8 -113 l-7 -55 -59
118 c-49 98 -62 117 -81 117 -19 0 -24 -7 -28 -42z m98 -169 c31 -62 56 -116
56 -120 0 -5 -32 -9 -71 -9 l-72 0 7 53 c3 28 9 82 12 120 4 37 8 67 10 67 1
0 28 -50 58 -111z"/>
<path d="M2075 1950 c-4 -6 8 -11 27 -11 l33 -2 -35 -7 -35 -7 35 -3 35 -3
-35 -7 c-27 -6 -15 -8 48 -9 76 -1 82 1 82 19 0 12 -7 20 -17 21 -15 0 -15 2
2 9 14 6 -5 9 -57 9 -42 1 -80 -3 -83 -9z"/>
<path d="M2269 1874 c0 -44 -4 -113 -8 -154 -4 -41 -8 -76 -7 -76 1 -1 31 -4
68 -8 l67 -6 10 36 c15 54 36 262 27 271 -4 4 -41 9 -82 11 l-74 4 -1 -78z"/>
<path d="M2476 1918 c-3 -7 -7 -33 -10 -58 -2 -25 -11 -74 -19 -110 -8 -36
-18 -92 -22 -125 -4 -33 -13 -98 -20 -145 -25 -153 -42 -396 -59 -827 l-5
-123 93 0 93 0 12 268 c11 238 35 523 61 727 16 120 18 115 -42 115 -68 0 -80
9 -76 51 3 31 6 34 41 37 32 3 37 7 37 28 0 20 -5 24 -30 24 -32 0 -34 6 -24
59 l7 32 61 -3 c56 -3 61 -1 64 19 3 19 -3 22 -55 28 -32 3 -68 8 -81 11 -13
3 -24 -1 -26 -8z"/>
<path d="M2100 1880 c-21 -4 -27 -8 -15 -9 l20 -2 -20 -9 c-16 -7 -10 -9 25
-11 31 -1 37 -3 18 -6 -16 -2 -28 -11 -28 -19 0 -11 15 -14 64 -14 l65 0 -1
40 0 40 -47 -1 c-25 -1 -62 -5 -81 -9z m93 -7 c-13 -2 -33 -2 -45 0 -13 2 -3
4 22 4 25 0 35 -2 23 -4z m-36 -49 c-3 -3 -12 -4 -19 -1 -8 3 -5 6 6 6 11 1
17 -2 13 -5z"/>
<path d="M2170 1796 c0 -2 14 -6 30 -8 17 -3 30 -1 30 4 0 4 -13 8 -30 8 -16
0 -30 -2 -30 -4z"/>
<path d="M2070 1790 c-8 -27 -8 -50 1 -55 5 -4 31 -10 57 -14 l47 -8 -55 -8
c-73 -11 -45 -19 36 -10 l64 7 0 34 c0 19 -4 34 -9 34 -5 0 -8 -8 -7 -17 1
-15 -8 -18 -44 -20 -43 -1 -44 -1 -10 7 32 7 29 8 -25 10 -50 2 -55 4 -30 10
23 6 25 8 8 9 -12 0 -24 7 -26 14 -3 6 -6 10 -7 7z"/>
<path d="M2208 1678 c-2 -6 -30 -12 -64 -14 -43 -3 -52 -1 -34 5 23 8 22 9
-12 10 -21 1 -38 -4 -38 -10 0 -5 6 -7 13 -4 6 4 3 -1 -7 -9 -19 -15 -17 -16
25 -17 34 0 39 -2 24 -9 -15 -6 -4 -9 40 -11 l60 -2 -55 -7 -55 -7 62 -1 c57
-2 61 -1 56 18 -3 11 -12 20 -20 20 -12 0 -12 2 1 16 9 8 16 20 16 25 0 13 -8
11 -12 -3z"/>
<path d="M2253 1605 c-3 -9 -1 -21 5 -28 5 -6 13 -30 17 -52 9 -53 51 -151 57
-134 3 8 -2 59 -11 113 -14 86 -19 100 -39 107 -17 6 -24 5 -29 -6z"/>
<path d="M2063 1593 c9 -2 23 -2 30 0 6 3 -1 5 -18 5 -16 0 -22 -2 -12 -5z"/>
<path d="M2179 1583 c-1 -5 -1 -11 -1 -14 1 -3 -27 -6 -60 -7 -97 -3 -96 -16
2 -30 36 -5 53 -10 38 -11 -40 -2 -45 -21 -6 -22 20 -1 7 -6 -34 -11 -92 -14
-101 -37 -15 -40 62 -1 62 -1 17 -8 -43 -7 -44 -7 -10 -9 29 -2 32 -4 15 -11
-11 -5 -33 -10 -50 -11 -24 -2 -22 -3 15 -9 l45 -7 -47 -1 c-40 -2 -48 -5 -48
-21 0 -16 8 -21 48 -24 l47 -3 -50 -3 c-38 -2 -45 -4 -30 -11 18 -8 18 -9 2
-9 -26 -1 -17 -34 13 -48 25 -11 25 -11 -10 -13 -22 -2 -28 -4 -15 -7 30 -7
41 -21 12 -16 -23 5 -24 3 -30 -79 -4 -45 -7 -120 -7 -166 l0 -84 28 2 c42 3
50 -2 17 -10 -22 -6 -10 -8 46 -9 83 -1 88 3 89 67 0 21 -4 22 -66 22 -64 0
-66 1 -60 23 3 12 6 27 6 34 0 6 15 13 33 15 28 3 32 6 32 33 0 28 -2 30 -32
27 -32 -3 -33 -2 -33 31 l0 35 64 7 64 6 6 47 c11 92 9 324 -4 332 -9 6 -9 9
1 13 8 3 4 6 -8 6 -13 1 -24 -2 -24 -6z m4 -40 c-13 -2 -35 -2 -50 0 -16 2 -5
4 22 4 28 0 40 -2 28 -4z"/>
<path d="M2058 1573 c6 -2 18 -2 25 0 6 3 1 5 -13 5 -14 0 -19 -2 -12 -5z"/>
<path d="M2068 1523 c7 -3 16 -2 19 1 4 3 -2 6 -13 5 -11 0 -14 -3 -6 -6z"/>
<path d="M2058 1503 c6 -2 18 -2 25 0 6 3 1 5 -13 5 -14 0 -19 -2 -12 -5z"/>
<path d="M2259 1278 c-2 -4 -6 -30 -15 -95 -6 -44 -4 -53 8 -53 19 0 43 54 32
72 -6 10 -4 10 9 -1 17 -14 21 -6 20 37 -1 6 3 12 8 12 5 0 9 7 9 15 0 18 -17
20 -23 3 -4 -10 -7 -10 -18 0 -12 11 -27 16 -30 10z"/>
<path d="M2240 1103 c-4 -47 -3 -80 3 -95 3 -9 2 -18 -2 -20 -5 -2 -11 -96
-13 -210 l-4 -208 42 0 41 0 7 61 c3 34 6 132 6 217 0 132 -2 153 -14 143 -11
-10 -16 -8 -21 9 -4 13 -12 19 -20 16 -10 -4 -14 3 -12 24 2 27 13 35 40 31
11 -2 8 9 -8 25 -14 14 -19 11 -16 -8 3 -20 -18 -5 -22 15 l-4 22 -3 -22z m57
-225 c-3 -8 -6 -5 -6 6 -1 11 2 17 5 13 3 -3 4 -12 1 -19z"/>
<path d="M3870 1099 c0 -11 5 -17 10 -14 6 3 10 13 10 21 0 8 -4 14 -10 14 -5
0 -10 -9 -10 -21z"/>
<path d="M4040 985 c0 -9 -7 -18 -15 -21 -8 -4 -15 -13 -15 -20 0 -8 -8 -18
-17 -21 -28 -11 -49 -35 -61 -70 -10 -30 -9 -33 9 -33 13 0 25 11 33 31 7 17
17 29 22 28 4 -1 13 7 19 17 5 10 16 24 24 30 15 12 23 74 9 74 -4 0 -8 -7 -8
-15z"/>
<path d="M3991 973 c-1 -6 -4 -20 -7 -30 -5 -17 -5 -17 6 0 6 10 9 23 6 30 -3
9 -5 9 -5 0z"/>
<path d="M2016 864 c-8 -22 -8 -22 17 -27 21 -4 21 -4 -3 -7 -14 -2 0 -6 30
-10 l55 -7 -52 -1 c-29 -1 -53 -6 -53 -12 0 -5 8 -10 18 -11 13 0 14 -2 2 -6
-22 -9 -30 -26 -18 -40 8 -10 7 -13 -3 -13 -11 0 -11 -2 1 -10 13 -9 13 -10 0
-11 -8 -1 8 -5 35 -9 l50 -7 -45 -1 -45 -2 -2 -39 c-1 -36 1 -40 25 -44 24 -3
23 -4 -8 -7 -28 -2 -23 -4 25 -10 38 -5 67 -4 80 3 17 9 18 8 8 -5 -11 -13 -9
-15 15 -14 22 1 28 6 30 28 3 25 1 27 -45 31 l-48 3 50 4 c43 3 38 5 -35 10
l-85 6 83 2 c78 2 82 3 83 25 0 12 3 61 5 110 l4 87 -84 0 c-67 0 -85 -3 -90
-16z m157 -1 c-7 -2 -19 -2 -25 0 -7 3 -2 5 12 5 14 0 19 -2 13 -5z m-10 -70
c-7 -2 -19 -2 -25 0 -7 3 -2 5 12 5 14 0 19 -2 13 -5z m-60 -120 c-13 -2 -35
-2 -50 0 -16 2 -5 4 22 4 28 0 40 -2 28 -4z m45 -60 c-10 -2 -28 -2 -40 0 -13
2 -5 4 17 4 22 1 32 -1 23 -4z"/>
<path d="M4062 670 c0 -14 2 -19 5 -12 2 6 2 18 0 25 -3 6 -5 1 -5 -13z"/>
<path d="M1876 524 c-3 -26 -6 -73 -6 -105 0 -59 0 -59 30 -59 l30 0 0 105 c0
104 0 105 -24 105 -20 0 -24 -6 -30 -46z"/>
<path d="M1970 550 c0 -23 27 -140 40 -175 7 -18 17 -25 37 -25 26 0 31 6 55
73 14 39 29 87 33 105 6 30 5 32 -23 32 -29 0 -30 -2 -42 -65 -7 -36 -16 -65
-20 -65 -5 0 -12 28 -17 62 -7 56 -11 62 -35 69 -23 6 -28 4 -28 -11z"/>
<path d="M1706 529 c-24 -29 -32 -65 -26 -124 4 -46 44 -58 114 -35 35 11 36
13 36 61 0 51 -4 54 -47 43 -16 -4 -23 -14 -23 -31 0 -15 4 -22 11 -17 7 4 10
1 7 -7 -3 -8 -15 -15 -27 -17 -21 -3 -22 0 -19 50 3 46 6 53 26 56 12 2 22 -1
22 -7 0 -15 12 -14 34 2 15 11 17 17 7 35 -19 35 -82 31 -115 -9z"/>
<path d="M2169 460 c-1 -49 -2 -96 -3 -102 -1 -7 16 -15 37 -19 34 -5 40 -3
48 18 12 31 12 30 -11 36 -28 7 -25 27 4 27 16 0 27 7 31 20 8 26 -1 40 -26
40 -10 0 -19 5 -19 10 0 6 13 10 29 10 26 0 41 14 41 41 0 5 -29 9 -65 9 l-65
0 -1 -90z"/>
<path d="M2443 512 c-20 -3 -23 -9 -23 -52 0 -61 -7 -80 -31 -80 -17 0 -19 8
-19 65 0 59 -2 65 -20 65 -25 0 -40 -35 -40 -93 0 -60 22 -87 70 -87 52 0 68
8 85 41 15 29 21 135 8 141 -5 2 -18 2 -30 0z"/>
</g>
</svg>
